<?xml version="1.0" encoding="utf-8"?>
<!-- Generator: Adobe Illustrator 19.2.1, SVG Export Plug-In . SVG Version: 6.00 Build 0)  -->
<!DOCTYPE svg PUBLIC "-//W3C//DTD SVG 1.1//EN" "http://www.w3.org/Graphics/SVG/1.1/DTD/svg11.dtd">
<svg version="1.1" id="Layer_1" xmlns="http://www.w3.org/2000/svg" xmlns:xlink="http://www.w3.org/1999/xlink" x="0px" y="0px"
	 viewBox="0 0 104 104" style="enable-background:new 0 0 104 104;" xml:space="preserve">
<style type="text/css">
	.st0{fill:#FFFFFF;}
	.st1{fill:#E0E3E5;}
	.st2{fill:#4FC9FF;}
</style>
<g>
	<path class="st0" d="M52,103C23.9,103,1,80.1,1,52C1,23.9,23.9,1,52,1c28.1,0,51,22.9,51,51C103,80.1,80.1,103,52,103z"/>
	<path class="st1" d="M52,2c27.6,0,50,22.4,50,50s-22.4,50-50,50S2,79.6,2,52S24.4,2,52,2 M52,0C23.3,0,0,23.3,0,52s23.3,52,52,52
		s52-23.3,52-52S80.7,0,52,0L52,0z"/>
</g>
<path class="st2" d="M63.1,52c0-4.3,5-8.6,15-14.8C78,37,77.9,37,77.8,36.8c-7.7,4.1-13.1,6.4-16.9,6.4c-6.4,0-8.2-6.3-8.7-21.2
	c-0.1,0-0.1,0-0.2,0s-0.1,0-0.2,0c-0.5,14.9-2.3,21.2-8.7,21.2c-3.9,0-9.3-2.3-16.9-6.4C26.1,37,26,37,25.9,37.2
	c10,6.2,15,10.5,15,14.8s-5,8.6-15,14.8c0.1,0.1,0.1,0.2,0.2,0.4c7.7-4.1,13.1-6.4,16.9-6.4c6.4,0,8.2,6.3,8.7,21.2
	c0.1,0,0.1,0,0.2,0s0.1,0,0.2,0c0.5-14.9,2.3-21.2,8.7-21.2c3.8,0,9.4,2.4,16.9,6.4c0.1-0.1,0.1-0.2,0.2-0.4
	C68.1,60.6,63.1,56.3,63.1,52z"/>
</svg>
